<svg xmlns="http://www.w3.org/2000/svg" xmlns:xlink="http://www.w3.org/1999/xlink" xmlns:lucid="lucid" width="112.44" height="47.62"><g transform="translate(1232.0423677884614 504.71147902869757)" lucid:page-tab-id="0_0"><path d="M-1232.04-498.7a6 6 0 0 1 6-6h100.44a6 6 0 0 1 6 6v35.6a6 6 0 0 1-6 6h-100.44a6 6 0 0 1-6-6z" fill="none"/><use xlink:href="#a" transform="matrix(1,0,0,1,-1232.0423677884614,-504.71147902869757) translate(5.944444444444443 30.933333333333334)"/><defs><path fill="#3a414a" d="M580-336l-101 27c3-77 0-126-81-126-87 0-170 2-170 86V0H127v-528h101c1 15-3 35 2 47 19-25 60-47 131-47 135 0 223 18 219 151v41" id="b"/><path fill="#3a414a" d="M96 0v-94h208v-341H117v-93h288v434h178V0H96zm309-638H295v-98h110v98" id="c"/><path fill="#3a414a" d="M393-435c-90 0-179-2-180 86v169c1 88 90 86 180 86 126 0 84-151 84-254 0-61-21-87-84-87zM213-47V0H112v-684h101v203h3c19-25 59-47 130-47h85c98 0 147 49 147 151v226C578-48 530 0 431 0h-85c-71 0-111-22-130-47h-3" id="d"/><path fill="#3a414a" d="M392 0H257C147 0 93-43 93-146v-236c0-102 54-146 164-146h135c110 0 164 44 164 146v236C556-43 502 0 392 0zM271-94h108c60 0 76-21 76-71v-199c0-50-16-71-76-71H271c-60 0-77 21-77 71v199c0 50 17 71 77 71" id="e"/><path fill="#3a414a" d="M325-330l114-99v-99h101v129L393-276l165 139V0H457v-106L325-217 192-106V0H91v-137l166-139-147-123v-129h101v99" id="f"/><path fill="#3a414a" d="M459-528h101V94c0 103-62 146-172 146H253C137 240 84 193 89 82l101-27c-3 63 7 95 77 95h114c112 11 69-109 78-197h-3C437-22 397 0 326 0h-90C137 0 89-48 89-151v-377h101v347c0 61 21 87 84 87 92 0 184 4 185-86v-348" id="g"/><path fill="#3a414a" d="M563 0H86v-82c109-119 221-235 328-356H106v-90h444v82C442-327 331-211 225-91h338V0" id="h"/><g id="a"><use transform="matrix(0.022222222222222223,0,0,0.022222222222222223,0,0)" xlink:href="#b"/><use transform="matrix(0.022222222222222223,0,0,0.022222222222222223,14.444444444444445,0)" xlink:href="#c"/><use transform="matrix(0.022222222222222223,0,0,0.022222222222222223,28.88888888888889,0)" xlink:href="#d"/><use transform="matrix(0.022222222222222223,0,0,0.022222222222222223,43.333333333333336,0)" xlink:href="#e"/><use transform="matrix(0.022222222222222223,0,0,0.022222222222222223,57.77777777777778,0)" xlink:href="#f"/><use transform="matrix(0.022222222222222223,0,0,0.022222222222222223,72.22222222222223,0)" xlink:href="#g"/><use transform="matrix(0.022222222222222223,0,0,0.022222222222222223,86.66666666666667,0)" xlink:href="#h"/></g></defs></g></svg>